<?xml version="1.0" encoding="UTF-8"?>
<svg width="32" height="32" viewBox="0 0 32 32" fill="none" xmlns="http://www.w3.org/2000/svg">
  <circle cx="16" cy="16" r="15" fill="white" stroke="black" stroke-width="2"/>
  <path d="M16 3C8.82 3 3 8.82 3 16C3 23.18 8.82 29 16 29C23.18 29 29 23.18 29 16C29 8.82 23.18 3 16 3ZM16 27C9.925 27 5 22.075 5 16C5 9.925 9.925 5 16 5C22.075 5 27 9.925 27 16C27 22.075 22.075 27 16 27Z" fill="black"/>
  <path d="M16 7L19.5 12H12.5L16 7Z" fill="black"/>
  <path d="M16 25L12.5 20H19.5L16 25Z" fill="black"/>
  <path d="M7 16L12 12.5V19.5L7 16Z" fill="black"/>
  <path d="M25 16L20 19.5V12.5L25 16Z" fill="black"/>
</svg> 